<svg width="355" height="277" viewBox="0 0 355 277" fill="none" xmlns="http://www.w3.org/2000/svg">
<rect x="49.2178" y="51.7871" width="256.736" height="173.766" stroke="black" stroke-width="2" stroke-linejoin="round" stroke-dasharray="3 3"/>
<rect x="87.2949" y="0.140625" width="267.47" height="201.967" fill="black"/>
<rect x="93.8447" y="29.6172" width="254.369" height="168.124" fill="white"/>
<rect x="114.588" y="51.4512" width="210.701" height="122.272" rx="8" fill="#CACACA"/>
<circle cx="155.97" cy="90.8747" r="6.25755" fill="#37393C"/>
<path d="M155.97 97.9141C149.058 97.9141 143.455 103.517 143.455 110.429H168.485C168.485 103.517 162.882 97.9141 155.97 97.9141Z" fill="#37393C"/>
<circle cx="201.002" cy="90.8747" r="6.25755" fill="#37393C"/>
<path d="M201.001 97.9141C194.09 97.9141 188.486 103.517 188.486 110.429H213.517C213.517 103.517 207.913 97.9141 201.001 97.9141Z" fill="#37393C"/>
<circle cx="246.033" cy="90.8747" r="6.25755" fill="#37393C"/>
<path d="M246.033 97.9141C239.121 97.9141 233.518 103.517 233.518 110.429H258.548C258.548 103.517 252.945 97.9141 246.033 97.9141Z" fill="#37393C"/>
<circle cx="291.064" cy="90.8747" r="6.25755" fill="#37393C"/>
<path d="M291.064 97.9141C284.152 97.9141 278.549 103.517 278.549 110.429H303.579C303.579 103.517 297.976 97.9141 291.064 97.9141Z" fill="#37393C"/>
<circle cx="149.97" cy="86.8747" r="6.25755" fill="#CADFF5"/>
<path d="M149.97 93.9141C143.058 93.9141 137.455 99.5173 137.455 106.429H162.485C162.485 99.5173 156.882 93.9141 149.97 93.9141Z" fill="#CADFF5"/>
<circle cx="195.002" cy="86.8747" r="6.25755" fill="#CADFF5"/>
<path d="M195.001 93.9141C188.09 93.9141 182.486 99.5173 182.486 106.429H207.517C207.517 99.5173 201.913 93.9141 195.001 93.9141Z" fill="#CADFF5"/>
<circle cx="240.033" cy="86.8747" r="6.25755" fill="#CADFF5"/>
<path d="M240.033 93.9141C233.121 93.9141 227.518 99.5173 227.518 106.429H252.548C252.548 99.5173 246.945 93.9141 240.033 93.9141Z" fill="#CADFF5"/>
<circle cx="285.064" cy="86.8747" r="6.25755" fill="#CADFF5"/>
<path d="M285.064 93.9141C278.152 93.9141 272.549 99.5173 272.549 106.429H297.579C297.579 99.5173 291.976 93.9141 285.064 93.9141Z" fill="#CADFF5"/>
<rect x="330.747" y="13.2402" width="16.3757" height="4.36686" rx="2.18343" fill="#C4C4C4"/>
<rect x="210.658" y="130.055" width="46.9437" height="4.36686" rx="2.18343" fill="white"/>
<rect x="122.455" y="57.6172" width="46.9437" height="4.36686" rx="2.18343" fill="white"/>
<rect x="267.428" y="130.055" width="46.9437" height="4.36686" rx="2.18343" fill="white"/>
<rect x="210.658" y="137.697" width="46.9437" height="4.36686" rx="2.18343" fill="white"/>
<rect x="122.455" y="65.2598" width="46.9437" height="4.36686" rx="2.18343" fill="white"/>
<rect x="267.428" y="137.697" width="46.9437" height="4.36686" rx="2.18343" fill="white"/>
<rect x="210.658" y="145.338" width="26.2011" height="4.36686" rx="2.18343" fill="white"/>
<rect x="122.455" y="72.9023" width="26.2011" height="4.36686" rx="2.18343" fill="white"/>
<rect x="267.428" y="145.338" width="26.2011" height="4.36686" rx="2.18343" fill="white"/>
<circle cx="96.574" cy="14.8797" r="2.72929" fill="#C4C4C4"/>
<circle cx="104.217" cy="14.8797" r="2.72929" fill="#C4C4C4"/>
<circle cx="111.858" cy="14.8797" r="2.72929" fill="#C4C4C4"/>
<g filter="url(#filter0_d_2127_77661)">
<rect x="16.9717" y="110.859" width="167.032" height="134.281" rx="15" fill="white"/>
</g>
<g clip-path="url(#clip0_2127_77661)">
<rect width="149.721" height="106.801" transform="translate(25.9551 124.834)" fill="white"/>
<path d="M25.9551 130.21C25.9551 127.241 28.3779 124.834 31.3667 124.834H170.215C173.204 124.834 175.627 127.241 175.627 130.21V138.453H25.9551V130.21Z" fill="#8F8F8F"/>
<path d="M37.1363 129.783C37.5125 129.783 37.8175 129.48 37.8175 129.106C37.8175 128.733 37.5125 128.43 37.1363 128.43C36.7601 128.43 36.4551 128.733 36.4551 129.106C36.4551 129.48 36.7601 129.783 37.1363 129.783Z" fill="#444441"/>
<path d="M37.1363 134.857C37.5125 134.857 37.8175 134.554 37.8175 134.181C37.8175 133.807 37.5125 133.504 37.1363 133.504C36.7601 133.504 36.4551 133.807 36.4551 134.181C36.4551 134.554 36.7601 134.857 37.1363 134.857Z" fill="#444441"/>
<path d="M37.1363 132.32C37.5125 132.32 37.8175 132.017 37.8175 131.644C37.8175 131.27 37.5125 130.967 37.1363 130.967C36.7601 130.967 36.4551 131.27 36.4551 131.644C36.4551 132.017 36.7601 132.32 37.1363 132.32Z" fill="#444441"/>
<path d="M25.9551 138.453H175.676V226.259C175.676 229.228 173.253 231.635 170.264 231.635H31.3667C28.3779 231.635 25.9551 229.228 25.9551 226.259V138.453Z" fill="#F0F0F0"/>
<circle cx="61.638" cy="183.708" r="13.0911" fill="#8F8F8F"/>
<path d="M61.6373 198.436C47.1773 198.436 35.4551 210.158 35.4551 224.618H87.8195C87.8195 210.158 76.0974 198.436 61.6373 198.436Z" fill="#8F8F8F"/>
<path d="M142.955 224.691C139.324 224.691 135.952 224.042 132.839 222.744C129.726 221.445 127.033 219.657 124.758 217.38C122.483 215.103 120.697 212.406 119.401 209.29C118.104 206.173 117.455 202.797 117.455 199.161C117.455 195.606 118.104 192.28 119.401 189.183C120.697 186.087 122.483 183.39 124.758 181.093C127.033 178.795 129.726 176.988 132.839 175.669C135.952 174.351 139.304 173.691 142.895 173.691C145.888 173.691 148.682 174.141 151.276 175.04C153.869 175.939 156.244 177.207 158.399 178.845L154.209 182.98C152.652 181.862 150.926 180.983 149.031 180.344C147.135 179.704 145.09 179.385 142.895 179.385C137.268 179.385 132.56 181.272 128.768 185.048C124.977 188.824 123.082 193.548 123.082 199.221C123.082 204.895 124.977 209.619 128.768 213.395C132.56 217.17 137.268 219.058 142.895 219.058C148.522 219.058 153.231 217.17 157.022 213.395C160.813 209.619 162.709 204.895 162.709 199.221C162.709 198.223 162.629 197.244 162.469 196.285C162.31 195.326 162.09 194.407 161.811 193.528L166.3 188.973C166.979 190.572 167.497 192.22 167.856 193.918C168.216 195.616 168.395 197.364 168.395 199.161C168.395 202.797 167.737 206.173 166.42 209.29C165.103 212.406 163.297 215.103 161.003 217.38C158.708 219.657 156.014 221.445 152.922 222.744C149.829 224.042 146.507 224.691 142.955 224.691ZM139.244 211.027L128.709 200.42L132.599 196.465L139.244 203.117L164.445 177.886L168.455 181.842L139.244 211.027Z" fill="#11B2B8"/>
<rect x="35.4551" y="146.617" width="62.2237" height="5.44458" rx="2.72229" fill="#BABABA"/>
<rect x="35.4551" y="155.949" width="27.2229" height="5.44458" rx="2.72229" fill="#BABABA"/>
<rect x="130.349" y="148.172" width="30.3341" height="5.44458" rx="2.72229" fill="#75D8DC"/>
<rect x="130.349" y="157.506" width="30.3341" height="5.44458" rx="2.72229" fill="#75D8DC"/>
</g>
<defs>
<filter id="filter0_d_2127_77661" x="0.97168" y="99.8594" width="209.032" height="176.281" filterUnits="userSpaceOnUse" color-interpolation-filters="sRGB">
<feFlood flood-opacity="0" result="BackgroundImageFix"/>
<feColorMatrix in="SourceAlpha" type="matrix" values="0 0 0 0 0 0 0 0 0 0 0 0 0 0 0 0 0 0 127 0" result="hardAlpha"/>
<feOffset dx="5" dy="10"/>
<feGaussianBlur stdDeviation="10.5"/>
<feComposite in2="hardAlpha" operator="out"/>
<feColorMatrix type="matrix" values="0 0 0 0 0.700272 0 0 0 0 0.700272 0 0 0 0 0.700272 0 0 0 0.25 0"/>
<feBlend mode="normal" in2="BackgroundImageFix" result="effect1_dropShadow_2127_77661"/>
<feBlend mode="normal" in="SourceGraphic" in2="effect1_dropShadow_2127_77661" result="shape"/>
</filter>
<clipPath id="clip0_2127_77661">
<rect width="149.721" height="106.801" fill="white" transform="translate(25.9551 124.834)"/>
</clipPath>
</defs>
</svg>
